<mxfile host="app.diagrams.net" modified="2023-04-11T16:30:37.185Z" agent="Mozilla/5.0 (Windows NT 10.0; Win64; x64) AppleWebKit/537.36 (KHTML, like Gecko) Chrome/111.0.0.0 Safari/537.36" etag="06xHhKQnnHGvA2HMru2p" version="21.1.5" type="device">
  <diagram name="PÃ¡gina-1" id="bnvdQCV9FZLhE5trDFcq">
    <mxGraphModel dx="1434" dy="796" grid="1" gridSize="10" guides="1" tooltips="1" connect="1" arrows="1" fold="1" page="1" pageScale="1" pageWidth="827" pageHeight="1169" math="0" shadow="0">
      <root>
        <mxCell id="0" />
        <mxCell id="1" parent="0" />
        <mxCell id="MxejC8lVYmj3KgxqTDQo-1" value="Persona&lt;br&gt;" style="shape=umlActor;verticalLabelPosition=bottom;verticalAlign=top;html=1;outlineConnect=0;" vertex="1" parent="1">
          <mxGeometry x="130" y="80" width="50" height="80" as="geometry" />
        </mxCell>
        <mxCell id="MxejC8lVYmj3KgxqTDQo-2" value="Mascota" style="shape=umlActor;verticalLabelPosition=bottom;verticalAlign=top;html=1;outlineConnect=0;" vertex="1" parent="1">
          <mxGeometry x="130" y="220" width="50" height="80" as="geometry" />
        </mxCell>
        <mxCell id="MxejC8lVYmj3KgxqTDQo-7" value="Activar Rastrejador" style="ellipse;whiteSpace=wrap;html=1;" vertex="1" parent="1">
          <mxGeometry x="320" y="80" width="140" height="70" as="geometry" />
        </mxCell>
        <mxCell id="MxejC8lVYmj3KgxqTDQo-8" value="Desactivar Rastrejador" style="ellipse;whiteSpace=wrap;html=1;" vertex="1" parent="1">
          <mxGeometry x="320" y="160" width="140" height="70" as="geometry" />
        </mxCell>
        <mxCell id="MxejC8lVYmj3KgxqTDQo-9" value="Visualitzar&amp;nbsp;&lt;br style=&quot;border-color: var(--border-color);&quot;&gt;Posicio&lt;br style=&quot;border-color: var(--border-color);&quot;&gt;Rastrejador" style="ellipse;whiteSpace=wrap;html=1;" vertex="1" parent="1">
          <mxGeometry x="320" y="250" width="140" height="70" as="geometry" />
        </mxCell>
        <mxCell id="MxejC8lVYmj3KgxqTDQo-10" value="" style="endArrow=classic;html=1;rounded=0;" edge="1" parent="1" target="MxejC8lVYmj3KgxqTDQo-7">
          <mxGeometry width="50" height="50" relative="1" as="geometry">
            <mxPoint x="190" y="120" as="sourcePoint" />
            <mxPoint x="240" y="70" as="targetPoint" />
          </mxGeometry>
        </mxCell>
        <mxCell id="MxejC8lVYmj3KgxqTDQo-11" value="" style="endArrow=classic;html=1;rounded=0;entryX=0;entryY=0.5;entryDx=0;entryDy=0;" edge="1" parent="1" target="MxejC8lVYmj3KgxqTDQo-8">
          <mxGeometry width="50" height="50" relative="1" as="geometry">
            <mxPoint x="190" y="120" as="sourcePoint" />
            <mxPoint x="240" y="70" as="targetPoint" />
          </mxGeometry>
        </mxCell>
        <mxCell id="MxejC8lVYmj3KgxqTDQo-12" value="" style="endArrow=classic;html=1;rounded=0;entryX=0;entryY=0.5;entryDx=0;entryDy=0;" edge="1" parent="1" target="MxejC8lVYmj3KgxqTDQo-9">
          <mxGeometry width="50" height="50" relative="1" as="geometry">
            <mxPoint x="190" y="120" as="sourcePoint" />
            <mxPoint x="240" y="70" as="targetPoint" />
          </mxGeometry>
        </mxCell>
      </root>
    </mxGraphModel>
  </diagram>
</mxfile>
